<svg width="72" height="32" viewBox="0 0 72 32" fill="none" xmlns="http://www.w3.org/2000/svg">
<rect width="72" height="32" fill="white"/>
<g clip-path="url(#clip0_17162_110263)">
<path d="M6.44952 19.9136C6.21944 20.3648 6.19992 20.7762 6.37797 21.1258C6.85603 21.5664 8.13897 22.2209 11.5211 22.1445L10.8577 20.49C9.31866 20.6477 7.25685 20.6851 6.45033 19.9136H6.44952Z" fill="url(#paint0_linear_17162_110263)"/>
<path d="M7.19789 12.6461C7.29138 12.4136 7.62066 12.4144 7.71334 12.6477C8.44018 14.4705 11.7492 22.7161 11.7492 22.7161C11.8581 23.0177 12.1362 23.26 12.5061 23.26H14.5313C14.7955 23.26 14.9825 22.9909 14.8825 22.7438C13.9687 20.4779 10.128 11.3688 9.05319 8.80945C8.9353 8.52977 8.6605 8.3501 8.35725 8.3501H6.55235C6.24909 8.3501 5.9743 8.52977 5.85641 8.80945C4.84095 11.2217 0.940092 20.4828 0.0270738 22.747C-0.0721143 22.9925 0.114067 23.26 0.376671 23.26H2.32547C2.68727 23.26 3.02467 23.0698 3.16044 22.7161L7.1987 12.6461H7.19789Z" fill="#0A22AA"/>
<path d="M28.0498 16.7409V22.7402C28.0498 23.0272 27.8173 23.2597 27.5303 23.2597H25.7384C25.4514 23.2597 25.2188 23.0272 25.2188 22.7402V17.3417C25.2188 15.8409 24.3961 14.4604 23.053 14.5214C21.2448 14.6035 20.3944 16.1637 20.3944 18.5214V22.7402C20.3944 23.0272 20.1619 23.2597 19.8749 23.2597H18.083C17.796 23.2597 17.5635 23.0272 17.5635 22.7402V12.7677C17.5635 12.4807 17.796 12.2482 18.083 12.2482H19.8749C20.1619 12.2482 20.3944 12.4807 20.3944 12.7677V13.523C20.3944 13.6319 20.5359 13.6758 20.596 13.5848C21.2944 12.5311 22.479 12.0376 23.7603 12.0376C26.3335 12.0376 28.049 14.0823 28.049 16.7417L28.0498 16.7409Z" fill="#0A22AA"/>
<path d="M71.4589 23.26H69.6321C69.3337 23.26 69.0906 23.0169 69.0906 22.7185V17.3689C69.0906 15.5412 68.0394 14.555 67.0499 14.555C67.0231 14.555 66.9963 14.555 66.9686 14.5566C66.1206 14.5957 65.5255 14.9697 65.1499 15.7006C64.819 16.3445 64.658 17.2729 64.658 18.538V22.7185C64.658 23.0169 64.4149 23.26 64.1165 23.26H62.2873C61.9889 23.26 61.7458 23.0169 61.7458 22.7185V17.3689C61.7458 15.5412 60.6946 14.555 59.7051 14.555C59.6783 14.555 59.6515 14.555 59.6238 14.5566C58.7718 14.5957 58.1669 14.9697 57.7766 15.7006C57.4262 16.3559 57.2563 17.2835 57.2563 18.5372V22.7177C57.2563 23.0161 57.0132 23.2592 56.7148 23.2592H54.8888C54.5904 23.2592 54.3473 23.0161 54.3473 22.7169L54.3457 12.79C54.3457 12.6452 54.4018 12.5095 54.5042 12.407C54.6067 12.3046 54.7425 12.2485 54.8872 12.2485H56.714C57.0124 12.2485 57.2555 12.4916 57.2555 12.7891V13.5802C57.2563 13.6339 57.3002 13.6656 57.3433 13.6656C57.3709 13.6656 57.3953 13.6526 57.4116 13.629C58.0815 12.6648 59.3352 12.0387 60.6051 12.0339H60.6214C62.3303 12.0339 63.5539 13.0461 64.1287 13.994C64.145 14.0209 64.1735 14.0363 64.2044 14.0363C64.2352 14.0363 64.2621 14.0209 64.2775 13.9949C64.9832 12.8209 66.3499 12.0322 67.6776 12.0322C68.9109 12.0322 70.0207 12.5087 70.8012 13.3745C71.5744 14.2314 72.0004 15.438 72.0004 16.7721V22.7169C72.0004 23.0153 71.7573 23.2584 71.4589 23.2584V23.26Z" fill="#0A22AA"/>
<path d="M47.4864 11.9728C46.0027 11.9728 44.64 12.5069 43.5457 13.5175C41.9075 15.0313 37.1863 19.8753 37.1399 19.9233C35.8562 21.2428 33.631 21.007 32.57 19.5509C32.1757 19.0102 31.9594 18.3501 31.9594 17.681V15.7915C31.9594 15.7167 32.0204 15.6557 32.0952 15.6557H36.205C36.4806 15.6557 36.705 15.4313 36.705 15.1557V13.3817C36.705 13.1061 36.4806 12.8817 36.205 12.8817H32.0952C32.0204 12.8817 31.9594 12.8207 31.9594 12.7459V10.898C31.9594 10.6223 31.735 10.3979 31.4594 10.3979H29.6895C29.4138 10.3979 29.1895 10.6223 29.1895 10.898V17.8736L29.1911 17.9005C29.2187 19.1899 29.6821 20.4485 30.4952 21.4452C31.5879 22.7835 33.2659 23.5818 34.9936 23.5818C36.544 23.5818 38.0017 22.9778 39.0977 21.8818C39.0977 21.8818 40.9497 20.0298 40.9506 20.029C41.3286 19.6509 41.9863 19.7143 42.2221 20.2233C43.1709 22.2639 45.2376 23.5827 47.488 23.5827C48.9628 23.5827 50.3686 23.0282 51.4466 22.0225C52.6466 20.9046 53.319 19.3216 53.2913 17.6801C53.2393 14.5468 50.636 11.9866 47.4864 11.9736V11.9728ZM47.4872 20.8111C45.8116 20.8111 44.453 19.4525 44.453 17.7769C44.453 16.1013 45.8116 14.7427 47.4872 14.7427C49.1629 14.7427 50.5214 16.1013 50.5214 17.7769C50.5214 19.4525 49.1629 20.8111 47.4872 20.8111Z" fill="#0A22AA"/>
<path d="M16.8793 14.3811C16.6525 13.8551 16.3069 13.1428 15.9955 12.7323C15.8232 12.5046 15.5752 12.4445 15.2581 12.5095C11.2443 13.338 8.25724 15.2047 7.0556 16.4185C5.20192 18.2901 5.21656 20.0901 6.37755 21.1259C5.98242 20.3527 6.55641 19.2738 8.24261 18.1323C11.3809 16.0087 16.5297 15.0185 16.5403 15.0169C16.8289 14.9591 16.9956 14.651 16.8793 14.3811Z" fill="url(#paint1_linear_17162_110263)"/>
</g>
<defs>
<linearGradient id="paint0_linear_17162_110263" x1="5.46821" y1="19.7575" x2="12.0349" y2="22.1477" gradientUnits="userSpaceOnUse">
<stop offset="0.2" stop-color="#001676"/>
<stop offset="0.34" stop-color="#002087"/>
<stop offset="0.62" stop-color="#003BB6"/>
<stop offset="1" stop-color="#0066FF"/>
</linearGradient>
<linearGradient id="paint1_linear_17162_110263" x1="5.0694" y1="20.5738" x2="15.7988" y2="12.7786" gradientUnits="userSpaceOnUse">
<stop stop-color="#0A22AA"/>
<stop offset="0.32" stop-color="#034FE3"/>
<stop offset="0.5" stop-color="#0066FF"/>
<stop offset="0.54" stop-color="#006AFF"/>
<stop offset="0.76" stop-color="#0080FF"/>
<stop offset="0.9" stop-color="#0088FF"/>
</linearGradient>
<clipPath id="clip0_17162_110263">
<rect width="72" height="15.2311" fill="white" transform="translate(0 8.3501)"/>
</clipPath>
</defs>
</svg>
