<svg xmlns="http://www.w3.org/2000/svg" width="24" height="24" viewBox="0 0 24 24" fill="none">
    <path d="M11.3047 4.24698C11.7204 3.88363 12.3523 3.92619 12.7159 4.34171C13.0792 4.75735 13.0366 5.38926 12.6211 5.75284L6.34183 11.247C5.8865 11.6454 5.8865 12.3544 6.34183 12.7528L12.6211 18.247C13.0366 18.6106 13.0792 19.2425 12.7159 19.6581C12.3523 20.0736 11.7204 20.1162 11.3047 19.7528L5.02444 14.2577C3.65852 13.0625 3.65852 10.9373 5.02444 9.7421L11.3047 4.24698Z" fill="#0A22AA"/>
    <path d="M19 13C19.5523 13 20 12.5523 20 12C20 11.4477 19.5523 11 19 11L6 11C5.44772 11 5 11.4477 5 12C5 12.5523 5.44772 13 6 13L19 13Z" fill="#0A22AA"/>
</svg>