<svg xmlns="http://www.w3.org/2000/svg" width="64" height="64" viewBox="0 0 64 64" fill="none">
  <path d="M32 0C14.3426 0 0 14.3426 0 32C0 49.6574 14.3426 64 32 64C49.6574 64 64 49.6574 64 32C64 14.3426 49.6574 0 32 0Z" fill="#0A22AA"/>
  <path d="M43.5339 20.8947L28.4648 38.6451L20.3066 30.6459C19.329 29.6873 17.7109 29.6873 16.7332 30.6459C15.7556 31.6044 15.7556 33.1911 16.7332 34.1497L25.5319 42.777C26.3073 43.5372 27.3861 44 28.4985 44C28.566 44 28.6334 44 28.6671 44C29.847 43.9339 30.9595 43.405 31.7348 42.5125L47.4107 24.0679C48.3209 23.0102 48.1523 21.4566 47.0736 20.5641C45.9948 19.7047 44.4104 19.8369 43.5001 20.8947H43.5339Z" fill="white"/>
</svg>