<svg width="24" height="24" viewBox="0 0 24 24" fill="none" xmlns="http://www.w3.org/2000/svg">
<path d="M20.6914 5.25358L16.5771 2.15505C16.4434 2.05486 16.2809 2.00012 16.1143 2.00012H7.88571C7.71909 2.00012 7.55657 2.05486 7.42286 2.15505L3.30857 5.25358C3.1152 5.40025 3 5.62954 3 5.87329V10.2226C3 15.3558 6.21531 20.015 11.0064 21.8194C11.3263 21.9402 11.6626 22.0001 11.999 22.0001C12.3353 22.0001 12.6747 21.9392 12.9977 21.8173C17.7847 20.015 21 15.3548 21 10.2216V5.87226C21 5.6285 20.8858 5.40025 20.6914 5.25358Z" fill="#35AA2F"/>
<path d="M15.8591 8.62622C15.5423 8.34234 15.0557 8.36702 14.7688 8.68382L11.6399 12.1614L9.74522 10.0559C9.46031 9.73914 8.97277 9.71342 8.65494 9.99834C8.33814 10.2833 8.31242 10.7708 8.59734 11.0886L11.0659 13.8318C11.213 13.9943 11.4208 14.0869 11.6399 14.0869C11.8589 14.0869 12.0667 13.9943 12.2138 13.8318L15.9167 9.71754C16.2016 9.40074 16.1759 8.91217 15.8591 8.62622Z" fill="white"/>
</svg>
